<mxfile host="Electron" agent="Mozilla/5.0 (Windows NT 10.0; Win64; x64) AppleWebKit/537.36 (KHTML, like Gecko) draw.io/27.0.5 Chrome/134.0.6998.205 Electron/35.3.0 Safari/537.36" version="27.0.5">
  <diagram name="Page-1" id="OTuf6kp7Mjazqux-CROc">
    <mxGraphModel dx="1426" dy="841" grid="1" gridSize="10" guides="1" tooltips="1" connect="1" arrows="1" fold="1" page="1" pageScale="1" pageWidth="850" pageHeight="1100" math="0" shadow="0">
      <root>
        <mxCell id="0" />
        <mxCell id="1" parent="0" />
        <mxCell id="y7cbY5UVi8VfQAvK4mP1-1" value="BE_BOLETOS_391IAU" style="shape=table;startSize=25;container=1;collapsible=0;childLayout=tableLayout;fixedRows=1;rowLines=1;fontStyle=1;align=center;resizeLast=1;" parent="1" vertex="1">
          <mxGeometry x="19.5" y="330" width="277" height="209" as="geometry" />
        </mxCell>
        <mxCell id="y7cbY5UVi8VfQAvK4mP1-2" style="shape=tableRow;horizontal=0;startSize=0;swimlaneHead=0;swimlaneBody=0;fillColor=none;collapsible=0;dropTarget=0;points=[[0,0.5],[1,0.5]];portConstraint=eastwest;top=0;left=0;right=0;bottom=0;" parent="y7cbY5UVi8VfQAvK4mP1-1" vertex="1">
          <mxGeometry y="25" width="277" height="46" as="geometry" />
        </mxCell>
        <mxCell id="y7cbY5UVi8VfQAvK4mP1-3" value="int" style="shape=partialRectangle;connectable=0;fillColor=none;top=0;left=0;bottom=0;right=0;align=left;spacingLeft=2;overflow=hidden;fontSize=11;" parent="y7cbY5UVi8VfQAvK4mP1-2" vertex="1">
          <mxGeometry width="48" height="46" as="geometry">
            <mxRectangle width="48" height="46" as="alternateBounds" />
          </mxGeometry>
        </mxCell>
        <mxCell id="y7cbY5UVi8VfQAvK4mP1-4" value="NumeroDeBoleto" style="shape=partialRectangle;connectable=0;fillColor=none;top=0;left=0;bottom=0;right=0;align=left;spacingLeft=2;overflow=hidden;fontSize=11;" parent="y7cbY5UVi8VfQAvK4mP1-2" vertex="1">
          <mxGeometry x="48" width="209" height="46" as="geometry">
            <mxRectangle width="209" height="46" as="alternateBounds" />
          </mxGeometry>
        </mxCell>
        <mxCell id="y7cbY5UVi8VfQAvK4mP1-5" value="PK" style="shape=partialRectangle;connectable=0;fillColor=none;top=0;left=0;bottom=0;right=0;align=left;spacingLeft=2;overflow=hidden;fontSize=11;" parent="y7cbY5UVi8VfQAvK4mP1-2" vertex="1">
          <mxGeometry x="257" width="20" height="46" as="geometry">
            <mxRectangle width="20" height="46" as="alternateBounds" />
          </mxGeometry>
        </mxCell>
        <mxCell id="y7cbY5UVi8VfQAvK4mP1-6" style="shape=tableRow;horizontal=0;startSize=0;swimlaneHead=0;swimlaneBody=0;fillColor=none;collapsible=0;dropTarget=0;points=[[0,0.5],[1,0.5]];portConstraint=eastwest;top=0;left=0;right=0;bottom=0;" parent="y7cbY5UVi8VfQAvK4mP1-1" vertex="1">
          <mxGeometry y="71" width="277" height="46" as="geometry" />
        </mxCell>
        <mxCell id="y7cbY5UVi8VfQAvK4mP1-7" value="datetime" style="shape=partialRectangle;connectable=0;fillColor=none;top=0;left=0;bottom=0;right=0;align=left;spacingLeft=2;overflow=hidden;fontSize=11;" parent="y7cbY5UVi8VfQAvK4mP1-6" vertex="1">
          <mxGeometry width="48" height="46" as="geometry">
            <mxRectangle width="48" height="46" as="alternateBounds" />
          </mxGeometry>
        </mxCell>
        <mxCell id="y7cbY5UVi8VfQAvK4mP1-8" value="FechaDeCompra" style="shape=partialRectangle;connectable=0;fillColor=none;top=0;left=0;bottom=0;right=0;align=left;spacingLeft=2;overflow=hidden;fontSize=11;" parent="y7cbY5UVi8VfQAvK4mP1-6" vertex="1">
          <mxGeometry x="48" width="209" height="46" as="geometry">
            <mxRectangle width="209" height="46" as="alternateBounds" />
          </mxGeometry>
        </mxCell>
        <mxCell id="y7cbY5UVi8VfQAvK4mP1-9" value="" style="shape=partialRectangle;connectable=0;fillColor=none;top=0;left=0;bottom=0;right=0;align=left;spacingLeft=2;overflow=hidden;fontSize=11;" parent="y7cbY5UVi8VfQAvK4mP1-6" vertex="1">
          <mxGeometry x="257" width="20" height="46" as="geometry">
            <mxRectangle width="20" height="46" as="alternateBounds" />
          </mxGeometry>
        </mxCell>
        <mxCell id="y7cbY5UVi8VfQAvK4mP1-10" style="shape=tableRow;horizontal=0;startSize=0;swimlaneHead=0;swimlaneBody=0;fillColor=none;collapsible=0;dropTarget=0;points=[[0,0.5],[1,0.5]];portConstraint=eastwest;top=0;left=0;right=0;bottom=0;" parent="y7cbY5UVi8VfQAvK4mP1-1" vertex="1">
          <mxGeometry y="117" width="277" height="46" as="geometry" />
        </mxCell>
        <mxCell id="y7cbY5UVi8VfQAvK4mP1-11" value="int" style="shape=partialRectangle;connectable=0;fillColor=none;top=0;left=0;bottom=0;right=0;align=left;spacingLeft=2;overflow=hidden;fontSize=11;" parent="y7cbY5UVi8VfQAvK4mP1-10" vertex="1">
          <mxGeometry width="48" height="46" as="geometry">
            <mxRectangle width="48" height="46" as="alternateBounds" />
          </mxGeometry>
        </mxCell>
        <mxCell id="y7cbY5UVi8VfQAvK4mP1-12" value="Cantidad" style="shape=partialRectangle;connectable=0;fillColor=none;top=0;left=0;bottom=0;right=0;align=left;spacingLeft=2;overflow=hidden;fontSize=11;" parent="y7cbY5UVi8VfQAvK4mP1-10" vertex="1">
          <mxGeometry x="48" width="209" height="46" as="geometry">
            <mxRectangle width="209" height="46" as="alternateBounds" />
          </mxGeometry>
        </mxCell>
        <mxCell id="y7cbY5UVi8VfQAvK4mP1-13" value="" style="shape=partialRectangle;connectable=0;fillColor=none;top=0;left=0;bottom=0;right=0;align=left;spacingLeft=2;overflow=hidden;fontSize=11;" parent="y7cbY5UVi8VfQAvK4mP1-10" vertex="1">
          <mxGeometry x="257" width="20" height="46" as="geometry">
            <mxRectangle width="20" height="46" as="alternateBounds" />
          </mxGeometry>
        </mxCell>
        <mxCell id="y7cbY5UVi8VfQAvK4mP1-14" style="shape=tableRow;horizontal=0;startSize=0;swimlaneHead=0;swimlaneBody=0;fillColor=none;collapsible=0;dropTarget=0;points=[[0,0.5],[1,0.5]];portConstraint=eastwest;top=0;left=0;right=0;bottom=0;" parent="y7cbY5UVi8VfQAvK4mP1-1" vertex="1">
          <mxGeometry y="163" width="277" height="46" as="geometry" />
        </mxCell>
        <mxCell id="y7cbY5UVi8VfQAvK4mP1-15" value="decimal" style="shape=partialRectangle;connectable=0;fillColor=none;top=0;left=0;bottom=0;right=0;align=left;spacingLeft=2;overflow=hidden;fontSize=11;" parent="y7cbY5UVi8VfQAvK4mP1-14" vertex="1">
          <mxGeometry width="48" height="46" as="geometry">
            <mxRectangle width="48" height="46" as="alternateBounds" />
          </mxGeometry>
        </mxCell>
        <mxCell id="y7cbY5UVi8VfQAvK4mP1-16" value="Total" style="shape=partialRectangle;connectable=0;fillColor=none;top=0;left=0;bottom=0;right=0;align=left;spacingLeft=2;overflow=hidden;fontSize=11;" parent="y7cbY5UVi8VfQAvK4mP1-14" vertex="1">
          <mxGeometry x="48" width="209" height="46" as="geometry">
            <mxRectangle width="209" height="46" as="alternateBounds" />
          </mxGeometry>
        </mxCell>
        <mxCell id="y7cbY5UVi8VfQAvK4mP1-17" value="" style="shape=partialRectangle;connectable=0;fillColor=none;top=0;left=0;bottom=0;right=0;align=left;spacingLeft=2;overflow=hidden;fontSize=11;" parent="y7cbY5UVi8VfQAvK4mP1-14" vertex="1">
          <mxGeometry x="257" width="20" height="46" as="geometry">
            <mxRectangle width="20" height="46" as="alternateBounds" />
          </mxGeometry>
        </mxCell>
        <mxCell id="y7cbY5UVi8VfQAvK4mP1-22" value="BE_SECTORES_391IAU" style="shape=table;startSize=25;container=1;collapsible=0;childLayout=tableLayout;fixedRows=1;rowLines=1;fontStyle=1;align=center;resizeLast=1;" parent="1" vertex="1">
          <mxGeometry x="44" y="20" width="228" height="257" as="geometry" />
        </mxCell>
        <mxCell id="y7cbY5UVi8VfQAvK4mP1-23" style="shape=tableRow;horizontal=0;startSize=0;swimlaneHead=0;swimlaneBody=0;fillColor=none;collapsible=0;dropTarget=0;points=[[0,0.5],[1,0.5]];portConstraint=eastwest;top=0;left=0;right=0;bottom=0;" parent="y7cbY5UVi8VfQAvK4mP1-22" vertex="1">
          <mxGeometry y="25" width="156" height="46" as="geometry" />
        </mxCell>
        <mxCell id="y7cbY5UVi8VfQAvK4mP1-24" value="int" style="shape=partialRectangle;connectable=0;fillColor=none;top=0;left=0;bottom=0;right=0;align=left;spacingLeft=2;overflow=hidden;fontSize=11;" parent="y7cbY5UVi8VfQAvK4mP1-23" vertex="1">
          <mxGeometry width="42" height="46" as="geometry">
            <mxRectangle width="42" height="46" as="alternateBounds" />
          </mxGeometry>
        </mxCell>
        <mxCell id="y7cbY5UVi8VfQAvK4mP1-25" value="IDSector" style="shape=partialRectangle;connectable=0;fillColor=none;top=0;left=0;bottom=0;right=0;align=left;spacingLeft=2;overflow=hidden;fontSize=11;" parent="y7cbY5UVi8VfQAvK4mP1-23" vertex="1">
          <mxGeometry x="42" width="166" height="46" as="geometry">
            <mxRectangle width="166" height="46" as="alternateBounds" />
          </mxGeometry>
        </mxCell>
        <mxCell id="y7cbY5UVi8VfQAvK4mP1-26" value="PK" style="shape=partialRectangle;connectable=0;fillColor=none;top=0;left=0;bottom=0;right=0;align=left;spacingLeft=2;overflow=hidden;fontSize=11;" parent="y7cbY5UVi8VfQAvK4mP1-23" vertex="1">
          <mxGeometry x="208" width="-52" height="46" as="geometry">
            <mxRectangle width="-52" height="46" as="alternateBounds" />
          </mxGeometry>
        </mxCell>
        <mxCell id="y7cbY5UVi8VfQAvK4mP1-27" style="shape=tableRow;horizontal=0;startSize=0;swimlaneHead=0;swimlaneBody=0;fillColor=none;collapsible=0;dropTarget=0;points=[[0,0.5],[1,0.5]];portConstraint=eastwest;top=0;left=0;right=0;bottom=0;" parent="y7cbY5UVi8VfQAvK4mP1-22" vertex="1">
          <mxGeometry y="71" width="156" height="46" as="geometry" />
        </mxCell>
        <mxCell id="y7cbY5UVi8VfQAvK4mP1-28" value="string" style="shape=partialRectangle;connectable=0;fillColor=none;top=0;left=0;bottom=0;right=0;align=left;spacingLeft=2;overflow=hidden;fontSize=11;" parent="y7cbY5UVi8VfQAvK4mP1-27" vertex="1">
          <mxGeometry width="42" height="46" as="geometry">
            <mxRectangle width="42" height="46" as="alternateBounds" />
          </mxGeometry>
        </mxCell>
        <mxCell id="y7cbY5UVi8VfQAvK4mP1-29" value="Nombre" style="shape=partialRectangle;connectable=0;fillColor=none;top=0;left=0;bottom=0;right=0;align=left;spacingLeft=2;overflow=hidden;fontSize=11;" parent="y7cbY5UVi8VfQAvK4mP1-27" vertex="1">
          <mxGeometry x="42" width="166" height="46" as="geometry">
            <mxRectangle width="166" height="46" as="alternateBounds" />
          </mxGeometry>
        </mxCell>
        <mxCell id="y7cbY5UVi8VfQAvK4mP1-30" value="" style="shape=partialRectangle;connectable=0;fillColor=none;top=0;left=0;bottom=0;right=0;align=left;spacingLeft=2;overflow=hidden;fontSize=11;" parent="y7cbY5UVi8VfQAvK4mP1-27" vertex="1">
          <mxGeometry x="208" width="-52" height="46" as="geometry">
            <mxRectangle width="-52" height="46" as="alternateBounds" />
          </mxGeometry>
        </mxCell>
        <mxCell id="y7cbY5UVi8VfQAvK4mP1-31" style="shape=tableRow;horizontal=0;startSize=0;swimlaneHead=0;swimlaneBody=0;fillColor=none;collapsible=0;dropTarget=0;points=[[0,0.5],[1,0.5]];portConstraint=eastwest;top=0;left=0;right=0;bottom=0;" parent="y7cbY5UVi8VfQAvK4mP1-22" vertex="1">
          <mxGeometry y="117" width="156" height="46" as="geometry" />
        </mxCell>
        <mxCell id="y7cbY5UVi8VfQAvK4mP1-32" value="int" style="shape=partialRectangle;connectable=0;fillColor=none;top=0;left=0;bottom=0;right=0;align=left;spacingLeft=2;overflow=hidden;fontSize=11;" parent="y7cbY5UVi8VfQAvK4mP1-31" vertex="1">
          <mxGeometry width="42" height="46" as="geometry">
            <mxRectangle width="42" height="46" as="alternateBounds" />
          </mxGeometry>
        </mxCell>
        <mxCell id="y7cbY5UVi8VfQAvK4mP1-33" value="Capacidad" style="shape=partialRectangle;connectable=0;fillColor=none;top=0;left=0;bottom=0;right=0;align=left;spacingLeft=2;overflow=hidden;fontSize=11;" parent="y7cbY5UVi8VfQAvK4mP1-31" vertex="1">
          <mxGeometry x="42" width="166" height="46" as="geometry">
            <mxRectangle width="166" height="46" as="alternateBounds" />
          </mxGeometry>
        </mxCell>
        <mxCell id="y7cbY5UVi8VfQAvK4mP1-34" value="" style="shape=partialRectangle;connectable=0;fillColor=none;top=0;left=0;bottom=0;right=0;align=left;spacingLeft=2;overflow=hidden;fontSize=11;" parent="y7cbY5UVi8VfQAvK4mP1-31" vertex="1">
          <mxGeometry x="208" width="-52" height="46" as="geometry">
            <mxRectangle width="-52" height="46" as="alternateBounds" />
          </mxGeometry>
        </mxCell>
        <mxCell id="y7cbY5UVi8VfQAvK4mP1-35" style="shape=tableRow;horizontal=0;startSize=0;swimlaneHead=0;swimlaneBody=0;fillColor=none;collapsible=0;dropTarget=0;points=[[0,0.5],[1,0.5]];portConstraint=eastwest;top=0;left=0;right=0;bottom=0;" parent="y7cbY5UVi8VfQAvK4mP1-22" vertex="1">
          <mxGeometry y="163" width="156" height="46" as="geometry" />
        </mxCell>
        <mxCell id="y7cbY5UVi8VfQAvK4mP1-36" value="int" style="shape=partialRectangle;connectable=0;fillColor=none;top=0;left=0;bottom=0;right=0;align=left;spacingLeft=2;overflow=hidden;fontSize=11;" parent="y7cbY5UVi8VfQAvK4mP1-35" vertex="1">
          <mxGeometry width="42" height="46" as="geometry">
            <mxRectangle width="42" height="46" as="alternateBounds" />
          </mxGeometry>
        </mxCell>
        <mxCell id="y7cbY5UVi8VfQAvK4mP1-37" value="Disponibles" style="shape=partialRectangle;connectable=0;fillColor=none;top=0;left=0;bottom=0;right=0;align=left;spacingLeft=2;overflow=hidden;fontSize=11;" parent="y7cbY5UVi8VfQAvK4mP1-35" vertex="1">
          <mxGeometry x="42" width="166" height="46" as="geometry">
            <mxRectangle width="166" height="46" as="alternateBounds" />
          </mxGeometry>
        </mxCell>
        <mxCell id="y7cbY5UVi8VfQAvK4mP1-38" value="" style="shape=partialRectangle;connectable=0;fillColor=none;top=0;left=0;bottom=0;right=0;align=left;spacingLeft=2;overflow=hidden;fontSize=11;" parent="y7cbY5UVi8VfQAvK4mP1-35" vertex="1">
          <mxGeometry x="208" width="-52" height="46" as="geometry">
            <mxRectangle width="-52" height="46" as="alternateBounds" />
          </mxGeometry>
        </mxCell>
        <mxCell id="y7cbY5UVi8VfQAvK4mP1-39" style="shape=tableRow;horizontal=0;startSize=0;swimlaneHead=0;swimlaneBody=0;fillColor=none;collapsible=0;dropTarget=0;points=[[0,0.5],[1,0.5]];portConstraint=eastwest;top=0;left=0;right=0;bottom=0;" parent="y7cbY5UVi8VfQAvK4mP1-22" vertex="1">
          <mxGeometry y="209" width="156" height="46" as="geometry" />
        </mxCell>
        <mxCell id="y7cbY5UVi8VfQAvK4mP1-40" value="decimal" style="shape=partialRectangle;connectable=0;fillColor=none;top=0;left=0;bottom=0;right=0;align=left;spacingLeft=2;overflow=hidden;fontSize=11;" parent="y7cbY5UVi8VfQAvK4mP1-39" vertex="1">
          <mxGeometry width="42" height="46" as="geometry">
            <mxRectangle width="42" height="46" as="alternateBounds" />
          </mxGeometry>
        </mxCell>
        <mxCell id="y7cbY5UVi8VfQAvK4mP1-41" value="Precio" style="shape=partialRectangle;connectable=0;fillColor=none;top=0;left=0;bottom=0;right=0;align=left;spacingLeft=2;overflow=hidden;fontSize=11;" parent="y7cbY5UVi8VfQAvK4mP1-39" vertex="1">
          <mxGeometry x="42" width="166" height="46" as="geometry">
            <mxRectangle width="166" height="46" as="alternateBounds" />
          </mxGeometry>
        </mxCell>
        <mxCell id="y7cbY5UVi8VfQAvK4mP1-42" value="" style="shape=partialRectangle;connectable=0;fillColor=none;top=0;left=0;bottom=0;right=0;align=left;spacingLeft=2;overflow=hidden;fontSize=11;" parent="y7cbY5UVi8VfQAvK4mP1-39" vertex="1">
          <mxGeometry x="208" width="-52" height="46" as="geometry">
            <mxRectangle width="-52" height="46" as="alternateBounds" />
          </mxGeometry>
        </mxCell>
        <mxCell id="y7cbY5UVi8VfQAvK4mP1-43" value="" style="curved=1;startArrow=ERmandOne;startSize=10;;endArrow=ERzeroToMany;endSize=10;;exitX=0.5;exitY=1;entryX=0.5;entryY=0;rounded=0;" parent="1" source="y7cbY5UVi8VfQAvK4mP1-22" target="y7cbY5UVi8VfQAvK4mP1-1" edge="1">
          <mxGeometry relative="1" as="geometry">
            <Array as="points" />
          </mxGeometry>
        </mxCell>
      </root>
    </mxGraphModel>
  </diagram>
</mxfile>
